<svg width="62" height="19" viewBox="0 0 62 19" fill="none" xmlns="http://www.w3.org/2000/svg">
<path d="M6.499 13.1927H2.43501L1.32884 18.7497H0.270752L3.92594 0.852295H5.1764L8.80754 18.7497H7.62922L6.499 13.1927ZM2.62739 12.1664H6.30662L4.81569 4.78221C4.73553 4.39839 4.6714 3.98121 4.62331 3.53064C4.57521 3.08008 4.54315 2.70461 4.52712 2.40424H4.47902C4.44696 2.70461 4.39486 3.06756 4.32272 3.4931C4.25058 3.91863 4.17443 4.33999 4.09427 4.75718L2.62739 12.1664Z" fill="#2B2B2B"/>
<path d="M14.6034 7.28537C13.2405 7.33543 12.2785 8.23655 11.7173 9.98875V18.7497H10.5869V6.13393H11.6211L11.6692 8.66209H11.7414C11.8376 8.36172 11.9698 8.06134 12.1382 7.76097C12.3066 7.46059 12.511 7.18942 12.7515 6.94745C12.992 6.70548 13.2686 6.50523 13.5813 6.3467C13.8939 6.18817 14.2346 6.09221 14.6034 6.05884V7.28537Z" fill="#2B2B2B"/>
<path d="M19.4843 17.9737C19.869 17.9737 20.2097 17.9069 20.5063 17.7734C20.8029 17.6399 21.0554 17.4814 21.2638 17.2978C21.5043 17.1142 21.7127 16.889 21.889 16.622L22.2497 17.5982C22.0734 17.8652 21.8489 18.0988 21.5764 18.2991C21.352 18.4826 21.0594 18.6453 20.6987 18.7872C20.338 18.929 19.9252 18.9999 19.4602 18.9999C18.2418 18.9999 17.3 18.4284 16.6347 17.2853C15.9694 16.1422 15.6367 14.536 15.6367 12.4668C15.6367 10.3808 15.9654 8.76215 16.6227 7.6107C17.28 6.45926 18.2338 5.88354 19.4843 5.88354C20.1095 5.88354 20.6386 5.99618 21.0714 6.22147C21.5043 6.44675 21.857 6.72626 22.1295 7.06002L21.8169 8.31158C21.5443 7.92776 21.2157 7.59402 20.8309 7.31033C20.4462 7.02664 19.9973 6.8848 19.4843 6.8848C18.5545 6.8848 17.8691 7.36873 17.4282 8.33661C16.9874 9.30449 16.7669 10.6812 16.7669 12.4668C16.7669 14.2023 16.9834 15.554 17.4162 16.5218C17.8491 17.4897 18.5384 17.9737 19.4843 17.9737Z" fill="#2B2B2B"/>
<path d="M29.1514 18.7496C29.1033 18.5828 29.0512 18.37 28.995 18.1113C28.9389 17.8527 28.8949 17.4981 28.8628 17.0475C28.5742 17.6483 28.2135 18.1238 27.7807 18.4743C27.3478 18.8247 26.8268 18.9999 26.2176 18.9999C25.4 18.9999 24.7347 18.6787 24.2217 18.0362C23.7087 17.3938 23.4521 16.4968 23.4521 15.3454C23.4521 13.9937 23.7968 12.9716 24.4862 12.279C25.1755 11.5865 26.1775 11.2402 27.4921 11.2402H28.8147V9.66327C28.8147 8.69539 28.6464 7.99452 28.3097 7.56064C27.973 7.12676 27.468 6.90983 26.7947 6.90983C26.2817 6.90983 25.8008 7.03081 25.3519 7.27278C24.903 7.51475 24.5343 7.85267 24.2457 8.28655L23.9331 7.16014C24.1736 6.82639 24.5383 6.53019 25.0272 6.27153C25.5162 6.01287 26.1054 5.88354 26.7947 5.88354C27.8047 5.88354 28.5782 6.17975 29.1153 6.77216C29.6523 7.36457 29.9209 8.28654 29.9209 9.53811V16.4217C29.9209 16.8556 29.9449 17.2936 29.993 17.7359C30.0411 18.1781 30.1052 18.516 30.1854 18.7496H29.1514ZM26.4581 18.0488C27.0192 18.0488 27.4961 17.8068 27.8889 17.3228C28.2816 16.8389 28.5903 16.2548 28.8147 15.5707V12.0913H27.5161C26.5062 12.0913 25.7607 12.3416 25.2797 12.8422C24.7988 13.3429 24.5583 14.1439 24.5583 15.2452C24.5583 16.1464 24.7307 16.8389 25.0753 17.3228C25.42 17.8068 25.8809 18.0488 26.4581 18.0488Z" fill="#2B2B2B"/>
<path d="M36.3656 6.8848C35.7564 6.8848 35.2274 7.12676 34.7785 7.6107C34.3296 8.09464 33.9529 8.73711 33.6483 9.53811V18.7496H32.5181V6.13386H33.5521L33.6002 8.21145H33.6483C33.7284 7.97783 33.8527 7.72752 34.021 7.46052C34.1894 7.19351 34.3938 6.9432 34.6342 6.70958C34.8747 6.47595 35.1552 6.27987 35.4759 6.12134C35.7965 5.96281 36.1652 5.88354 36.5821 5.88354C37.3997 5.88354 38.0289 6.1422 38.4698 6.65951C38.9106 7.17683 39.1311 7.93611 39.1311 8.93736V18.7496H38.0008V9.08755C38.0008 7.61904 37.4558 6.8848 36.3656 6.8848Z" fill="#2B2B2B"/>
<path d="M44.3492 17.9989C44.9584 17.9989 45.4834 17.7569 45.9243 17.273C46.3651 16.789 46.7379 16.1466 47.0425 15.3455V6.13403H48.1727V18.7498H47.1387L47.0906 16.6722H47.0425C46.9623 16.9058 46.8421 17.1561 46.6818 17.4231C46.5215 17.6901 46.3251 17.9405 46.0926 18.1741C45.8602 18.4077 45.5836 18.6038 45.263 18.7623C44.9423 18.9209 44.5736 19.0001 44.1568 19.0001C43.3392 19.0001 42.714 18.7039 42.2811 18.1115C41.8483 17.5191 41.6318 16.6555 41.6318 15.5208V6.13403H42.7621V15.3706C42.7621 17.1228 43.2911 17.9989 44.3492 17.9989Z" fill="#2B2B2B"/>
<path d="M51.9964 18.7496H50.8662V6.13386H51.9002L51.9483 8.03624H51.9964C52.0926 7.83599 52.2169 7.6107 52.3692 7.36039C52.5215 7.11008 52.7098 6.87645 52.9343 6.65951C53.1587 6.44258 53.4192 6.25902 53.7158 6.10883C54.0124 5.95864 54.3451 5.88354 54.7138 5.88354C55.9803 5.88354 56.7257 6.57607 56.9502 7.96114H56.9742C57.0544 7.79427 57.1706 7.58985 57.3229 7.34788C57.4752 7.1059 57.6676 6.87645 57.9 6.65951C58.1325 6.44258 58.397 6.25902 58.6936 6.10883C58.9902 5.95864 59.3228 5.88354 59.6916 5.88354C60.413 5.88354 60.9781 6.12551 61.3869 6.60945C61.7957 7.09339 62.0001 7.81095 62.0001 8.76214V18.7496H60.8699V8.91233C60.8699 8.21145 60.7657 7.69832 60.5573 7.37291C60.3489 7.0475 60.0042 6.8848 59.5232 6.8848C58.9621 6.8848 58.4732 7.1059 58.0564 7.54813C57.6395 7.99035 57.2868 8.55355 56.9983 9.23774V18.7496H55.868V8.91233C55.868 8.21145 55.7679 7.69832 55.5675 7.37291C55.3671 7.0475 55.0264 6.8848 54.5455 6.8848C53.9843 6.8848 53.4954 7.11008 53.0786 7.56064C52.6617 8.01121 52.301 8.61195 51.9964 9.36289V18.7496Z" fill="#2B2B2B"/>
</svg>

